<?xml version="1.0" encoding="UTF-8"?>
<svg xmlns="http://www.w3.org/2000/svg" xmlns:xlink="http://www.w3.org/1999/xlink" width="20pt" height="20pt" viewBox="0 0 20 20" version="1.1">
<g id="surface1">
<path style=" stroke:none;fill-rule:nonzero;fill:rgb(0%,0%,0%);fill-opacity:1;" d="M 18.792969 0 C 19.585938 0 20 0.539062 20 1.199219 L 20 18.800781 C 20 19.460938 19.585938 20 18.792969 20 L 1.167969 20 C 0.375 20 0 19.460938 0 18.800781 L 0 1.199219 C 0 0.539062 0.375 0 1.167969 0 Z M 18.871094 19.238281 C 19.078125 19.238281 19.246094 19.070312 19.246094 18.867188 C 19.246094 16.488281 19.246094 3.511719 19.246094 1.132812 C 19.246094 0.929688 19.078125 0.761719 18.871094 0.761719 C 16.5 0.761719 3.582031 0.761719 1.207031 0.761719 C 1 0.761719 0.835938 0.929688 0.835938 1.132812 C 0.835938 3.511719 0.835938 16.488281 0.835938 18.867188 C 0.835938 19.070312 1 19.238281 1.207031 19.238281 C 3.582031 19.238281 16.5 19.238281 18.871094 19.238281 Z M 3.859375 16.933594 L 3.273438 16.933594 C 3.050781 16.933594 2.871094 16.742188 2.871094 16.5 C 2.871094 16.261719 3.050781 16.070312 3.273438 16.070312 L 3.859375 16.070312 C 4.082031 16.070312 4.265625 16.261719 4.265625 16.5 C 4.265625 16.742188 4.082031 16.933594 3.859375 16.933594 Z M 13.039062 16.933594 L 12.453125 16.933594 C 12.230469 16.933594 12.050781 16.742188 12.050781 16.5 C 12.050781 16.261719 12.230469 16.070312 12.453125 16.070312 L 13.039062 16.070312 C 13.261719 16.070312 13.445312 16.261719 13.445312 16.5 C 13.445312 16.742188 13.261719 16.933594 13.039062 16.933594 Z M 10.929688 16.933594 L 5.226562 16.933594 C 5.003906 16.933594 4.824219 16.742188 4.824219 16.5 C 4.824219 16.261719 5.003906 16.070312 5.226562 16.070312 L 10.929688 16.070312 C 11.152344 16.070312 11.332031 16.261719 11.332031 16.5 C 11.332031 16.742188 11.152344 16.933594 10.929688 16.933594 Z M 16.726562 16.933594 L 14.777344 16.933594 C 14.554688 16.933594 14.375 16.742188 14.375 16.5 C 14.375 16.261719 14.554688 16.070312 14.777344 16.070312 L 16.726562 16.070312 C 16.949219 16.070312 17.128906 16.261719 17.128906 16.5 C 17.128906 16.742188 16.949219 16.933594 16.726562 16.933594 Z M 3.859375 15.25 L 3.273438 15.25 C 3.050781 15.25 2.871094 15.054688 2.871094 14.816406 C 2.871094 14.578125 3.050781 14.382812 3.273438 14.382812 L 3.859375 14.382812 C 4.082031 14.382812 4.265625 14.578125 4.265625 14.816406 C 4.265625 15.054688 4.082031 15.25 3.859375 15.25 Z M 13.039062 15.25 L 12.453125 15.25 C 12.230469 15.25 12.050781 15.054688 12.050781 14.816406 C 12.050781 14.578125 12.230469 14.382812 12.453125 14.382812 L 13.039062 14.382812 C 13.261719 14.382812 13.445312 14.578125 13.445312 14.816406 C 13.445312 15.054688 13.261719 15.25 13.039062 15.25 Z M 10.929688 15.25 L 5.226562 15.25 C 5.003906 15.25 4.824219 15.054688 4.824219 14.816406 C 4.824219 14.578125 5.003906 14.382812 5.226562 14.382812 L 10.929688 14.382812 C 11.152344 14.382812 11.332031 14.578125 11.332031 14.816406 C 11.332031 15.054688 11.152344 15.25 10.929688 15.25 Z M 16.726562 15.25 L 14.777344 15.25 C 14.554688 15.25 14.375 15.054688 14.375 14.816406 C 14.375 14.578125 14.554688 14.382812 14.777344 14.382812 L 16.726562 14.382812 C 16.949219 14.382812 17.128906 14.578125 17.128906 14.816406 C 17.128906 15.054688 16.949219 15.25 16.726562 15.25 Z M 3.859375 13.566406 L 3.273438 13.566406 C 3.050781 13.566406 2.871094 13.371094 2.871094 13.132812 C 2.871094 12.894531 3.050781 12.699219 3.273438 12.699219 L 3.859375 12.699219 C 4.082031 12.699219 4.265625 12.894531 4.265625 13.132812 C 4.265625 13.371094 4.082031 13.566406 3.859375 13.566406 Z M 13.039062 13.566406 L 12.453125 13.566406 C 12.230469 13.566406 12.050781 13.371094 12.050781 13.132812 C 12.050781 12.894531 12.230469 12.699219 12.453125 12.699219 L 13.039062 12.699219 C 13.261719 12.699219 13.445312 12.894531 13.445312 13.132812 C 13.445312 13.371094 13.261719 13.566406 13.039062 13.566406 Z M 10.929688 13.566406 L 5.226562 13.566406 C 5.003906 13.566406 4.824219 13.371094 4.824219 13.132812 C 4.824219 12.894531 5.003906 12.699219 5.226562 12.699219 L 10.929688 12.699219 C 11.152344 12.699219 11.332031 12.894531 11.332031 13.132812 C 11.332031 13.371094 11.152344 13.566406 10.929688 13.566406 Z M 16.726562 13.566406 L 14.777344 13.566406 C 14.554688 13.566406 14.375 13.371094 14.375 13.132812 C 14.375 12.894531 14.554688 12.699219 14.777344 12.699219 L 16.726562 12.699219 C 16.949219 12.699219 17.128906 12.894531 17.128906 13.132812 C 17.128906 13.371094 16.949219 13.566406 16.726562 13.566406 Z M 3.859375 11.882812 L 3.273438 11.882812 C 3.050781 11.882812 2.871094 11.6875 2.871094 11.449219 C 2.871094 11.210938 3.050781 11.015625 3.273438 11.015625 L 3.859375 11.015625 C 4.082031 11.015625 4.265625 11.210938 4.265625 11.449219 C 4.265625 11.6875 4.082031 11.882812 3.859375 11.882812 Z M 13.039062 11.882812 L 12.453125 11.882812 C 12.230469 11.882812 12.050781 11.6875 12.050781 11.449219 C 12.050781 11.210938 12.230469 11.015625 12.453125 11.015625 L 13.039062 11.015625 C 13.261719 11.015625 13.445312 11.210938 13.445312 11.449219 C 13.445312 11.6875 13.261719 11.882812 13.039062 11.882812 Z M 10.929688 11.882812 L 5.226562 11.882812 C 5.003906 11.882812 4.824219 11.6875 4.824219 11.449219 C 4.824219 11.210938 5.003906 11.015625 5.226562 11.015625 L 10.929688 11.015625 C 11.152344 11.015625 11.332031 11.210938 11.332031 11.449219 C 11.332031 11.6875 11.152344 11.882812 10.929688 11.882812 Z M 16.726562 11.882812 L 14.777344 11.882812 C 14.554688 11.882812 14.375 11.6875 14.375 11.449219 C 14.375 11.210938 14.554688 11.015625 14.777344 11.015625 L 16.726562 11.015625 C 16.949219 11.015625 17.128906 11.210938 17.128906 11.449219 C 17.128906 11.6875 16.949219 11.882812 16.726562 11.882812 Z M 6.949219 4.507812 C 6.953125 4.476562 6.964844 4.441406 6.980469 4.410156 C 7 4.371094 7.027344 4.339844 7.0625 4.3125 C 7.074219 4.300781 7.089844 4.289062 7.105469 4.28125 L 9.851562 2.753906 C 9.933594 2.710938 9.953125 2.710938 10.011719 2.714844 C 10.019531 2.714844 10.023438 2.714844 10.027344 2.714844 C 10.050781 2.714844 10.074219 2.71875 10.097656 2.726562 C 10.136719 2.734375 10.160156 2.746094 10.179688 2.761719 L 12.84375 4.246094 C 12.859375 4.253906 12.867188 4.257812 12.882812 4.265625 L 12.886719 4.265625 C 12.914062 4.277344 12.929688 4.289062 12.945312 4.304688 C 13.015625 4.367188 13.058594 4.457031 13.0625 4.550781 L 13.0625 7.558594 C 13.058594 7.671875 13 7.777344 12.902344 7.835938 L 10.160156 9.378906 C 10.089844 9.414062 10.066406 9.414062 10.023438 9.417969 C 10.003906 9.417969 9.984375 9.417969 9.96875 9.414062 C 9.941406 9.414062 9.917969 9.40625 9.890625 9.398438 C 9.871094 9.390625 9.867188 9.386719 9.851562 9.378906 L 7.097656 7.84375 C 7 7.785156 6.941406 7.679688 6.9375 7.566406 L 6.945312 4.554688 C 6.945312 4.539062 6.945312 4.523438 6.949219 4.507812 Z M 7.570312 7.382812 L 9.6875 8.5625 L 9.6875 6.25 L 7.574219 5.089844 C 7.574219 5.855469 7.570312 6.617188 7.570312 7.382812 Z M 12.429688 5.09375 L 10.320312 6.269531 L 10.320312 8.5625 L 12.429688 7.375 Z M 9.296875 5.3125 L 10.023438 5.710938 L 12.097656 4.554688 L 11.378906 4.152344 Z M 7.914062 4.554688 L 8.640625 4.953125 L 10.730469 3.789062 L 10.007812 3.386719 Z M 7.914062 4.554688 "/>
</g>
</svg>
