<?xml version="1.0" encoding="UTF-8"?>
<svg xmlns="http://www.w3.org/2000/svg" xmlns:xlink="http://www.w3.org/1999/xlink" width="20pt" height="20pt" viewBox="0 0 20 20" version="1.1">
<g id="surface1">
<path style=" stroke:none;fill-rule:evenodd;fill:rgb(0%,0%,0%);fill-opacity:1;" d="M 17.890625 20 L 2.109375 20 C 2.035156 19.988281 1.957031 19.96875 1.902344 19.914062 C 1.847656 19.859375 1.828125 19.785156 1.816406 19.707031 L 1.816406 0.292969 C 1.832031 0.164062 1.910156 0.0429688 2.035156 0.0117188 C 2.058594 0.00390625 2.085938 0.00390625 2.109375 0 L 17.890625 0 C 17.914062 0.00390625 17.941406 0.0078125 17.964844 0.0117188 C 18.0625 0.0507812 18.148438 0.121094 18.171875 0.21875 C 18.179688 0.242188 18.179688 0.269531 18.183594 0.292969 L 18.183594 19.707031 C 18.167969 19.835938 18.089844 19.957031 17.964844 19.988281 C 17.941406 19.996094 17.914062 19.996094 17.890625 20 Z M 2.40625 0.589844 L 2.40625 19.410156 L 17.59375 19.410156 L 17.59375 0.589844 Z M 16.179688 17.722656 L 15.074219 16.617188 L 15.617188 16.078125 C 15.664062 16.03125 15.683594 15.964844 15.667969 15.898438 C 15.652344 15.832031 15.605469 15.78125 15.539062 15.761719 L 12.292969 14.679688 C 12.222656 14.65625 12.148438 14.671875 12.097656 14.726562 C 12.046875 14.777344 12.027344 14.851562 12.050781 14.921875 L 13.132812 18.167969 C 13.15625 18.230469 13.207031 18.277344 13.269531 18.292969 C 13.335938 18.308594 13.402344 18.289062 13.449219 18.242188 L 13.992188 17.703125 L 15.09375 18.804688 C 15.132812 18.84375 15.183594 18.859375 15.230469 18.859375 C 15.28125 18.859375 15.328125 18.84375 15.367188 18.804688 L 16.179688 17.992188 C 16.253906 17.917969 16.253906 17.796875 16.179688 17.722656 Z M 15.230469 18.398438 L 14.128906 17.296875 C 14.050781 17.222656 13.929688 17.222656 13.855469 17.296875 L 13.398438 17.753906 L 12.535156 15.164062 L 15.125 16.027344 L 14.667969 16.484375 C 14.59375 16.558594 14.59375 16.679688 14.667969 16.753906 L 15.773438 17.859375 Z M 14.992188 12.300781 C 15.222656 12.304688 15.429688 12.5 15.433594 12.742188 C 15.4375 13.152344 15.4375 13.5625 15.433594 13.972656 C 15.429688 14.203125 15.230469 14.410156 14.992188 14.414062 C 13.234375 14.425781 11.476562 14.425781 9.71875 14.414062 C 9.492188 14.410156 9.285156 14.214844 9.277344 13.972656 C 9.277344 13.5625 9.277344 13.152344 9.277344 12.742188 C 9.28125 12.511719 9.480469 12.304688 9.71875 12.300781 C 11.476562 12.289062 13.234375 12.289062 14.992188 12.300781 Z M 14.84375 12.890625 L 9.867188 12.890625 L 9.867188 13.828125 L 14.84375 13.828125 Z M 7.609375 12.777344 L 3.878906 12.777344 C 3.6875 12.773438 3.515625 12.609375 3.511719 12.410156 L 3.511719 8.933594 C 3.515625 8.742188 3.679688 8.570312 3.878906 8.566406 C 5.125 8.566406 6.371094 8.550781 7.613281 8.566406 C 7.804688 8.574219 7.96875 8.734375 7.972656 8.933594 L 7.972656 12.410156 C 7.96875 12.601562 7.808594 12.773438 7.609375 12.777344 Z M 7.382812 9.15625 L 4.101562 9.15625 L 4.101562 12.1875 L 7.382812 12.1875 Z M 16.207031 11.082031 L 9.761719 11.082031 C 9.730469 11.082031 9.722656 11.082031 9.695312 11.078125 C 9.445312 11.039062 9.269531 10.726562 9.394531 10.484375 C 9.460938 10.351562 9.605469 10.265625 9.761719 10.257812 L 16.207031 10.257812 C 16.21875 10.257812 16.226562 10.261719 16.238281 10.261719 C 16.265625 10.265625 16.273438 10.265625 16.300781 10.269531 C 16.582031 10.335938 16.71875 10.742188 16.496094 10.964844 C 16.421875 11.039062 16.316406 11.078125 16.207031 11.082031 Z M 16.207031 9.386719 L 9.761719 9.386719 C 9.480469 9.375 9.257812 9.054688 9.394531 8.789062 C 9.453125 8.671875 9.566406 8.589844 9.695312 8.566406 C 9.722656 8.5625 9.730469 8.5625 9.761719 8.5625 L 16.207031 8.5625 C 16.21875 8.5625 16.226562 8.5625 16.238281 8.5625 C 16.265625 8.566406 16.273438 8.566406 16.300781 8.574219 C 16.582031 8.640625 16.71875 9.046875 16.496094 9.265625 C 16.421875 9.34375 16.316406 9.382812 16.207031 9.386719 Z M 16.207031 7.691406 L 3.808594 7.691406 C 3.640625 7.671875 3.480469 7.582031 3.421875 7.425781 C 3.339844 7.207031 3.480469 6.933594 3.710938 6.878906 C 3.742188 6.871094 3.773438 6.871094 3.808594 6.867188 L 16.207031 6.867188 C 16.238281 6.871094 16.273438 6.875 16.304688 6.878906 C 16.492188 6.949219 16.640625 7.121094 16.617188 7.328125 C 16.601562 7.460938 16.515625 7.582031 16.398438 7.644531 C 16.320312 7.683594 16.292969 7.679688 16.207031 7.691406 Z M 16.207031 6.066406 L 3.808594 6.066406 C 3.671875 6.046875 3.542969 5.996094 3.46875 5.886719 C 3.355469 5.722656 3.382812 5.476562 3.535156 5.34375 C 3.609375 5.277344 3.707031 5.253906 3.808594 5.242188 L 16.207031 5.242188 C 16.238281 5.246094 16.273438 5.25 16.304688 5.253906 C 16.460938 5.3125 16.59375 5.433594 16.617188 5.601562 C 16.636719 5.769531 16.542969 5.941406 16.398438 6.019531 C 16.320312 6.058594 16.292969 6.054688 16.207031 6.066406 Z M 16.207031 4.296875 L 3.808594 4.296875 C 3.609375 4.273438 3.421875 4.144531 3.398438 3.933594 C 3.375 3.734375 3.515625 3.53125 3.710938 3.484375 C 3.742188 3.476562 3.773438 3.476562 3.808594 3.472656 L 16.207031 3.472656 C 16.238281 3.476562 16.273438 3.480469 16.304688 3.484375 C 16.398438 3.519531 16.488281 3.570312 16.546875 3.652344 C 16.679688 3.84375 16.613281 4.136719 16.398438 4.25 C 16.320312 4.292969 16.292969 4.289062 16.207031 4.296875 Z M 10.199219 2.601562 L 3.808594 2.601562 C 3.777344 2.601562 3.773438 2.601562 3.742188 2.597656 C 3.492188 2.554688 3.316406 2.242188 3.441406 2 C 3.507812 1.867188 3.652344 1.78125 3.808594 1.777344 L 10.199219 1.777344 C 10.210938 1.777344 10.222656 1.777344 10.234375 1.777344 C 10.429688 1.800781 10.597656 1.960938 10.613281 2.15625 C 10.628906 2.359375 10.472656 2.5625 10.265625 2.597656 C 10.238281 2.601562 10.230469 2.601562 10.199219 2.601562 Z M 10.199219 2.601562 "/>
</g>
</svg>
