<?xml version="1.0" encoding="UTF-8"?>
<svg xmlns="http://www.w3.org/2000/svg" xmlns:xlink="http://www.w3.org/1999/xlink" width="20pt" height="20pt" viewBox="0 0 20 20" version="1.1">
<g id="surface1">
<path style=" stroke:none;fill-rule:evenodd;fill:rgb(0%,0%,0%);fill-opacity:1;" d="M 19 20 L 1 20 C 0.453125 20 0 19.53125 0 18.964844 L 0 1.035156 C 0 0.46875 0.453125 0 1 0 L 19 0 C 19.546875 0 20 0.46875 20 1.035156 L 20 18.964844 C 20 19.53125 19.546875 20 19 20 Z M 19.332031 3.449219 L 0.667969 3.449219 L 0.667969 18.964844 C 0.667969 19.15625 0.816406 19.308594 1 19.308594 L 19 19.308594 C 19.183594 19.308594 19.332031 19.15625 19.332031 18.964844 Z M 4.332031 17.929688 L 3 17.929688 C 2.453125 17.929688 2 17.464844 2 16.898438 C 2 16.328125 2.453125 15.863281 3 15.863281 L 4.332031 15.863281 C 4.882812 15.863281 5.332031 16.328125 5.332031 16.898438 C 5.332031 17.464844 4.882812 17.929688 4.332031 17.929688 Z M 4.332031 16.550781 L 3 16.550781 C 2.816406 16.550781 2.667969 16.707031 2.667969 16.898438 C 2.667969 17.085938 2.816406 17.242188 3 17.242188 L 4.332031 17.242188 C 4.515625 17.242188 4.667969 17.085938 4.667969 16.898438 C 4.667969 16.707031 4.515625 16.550781 4.332031 16.550781 Z M 14.832031 11.859375 C 15.730469 11.867188 16.605469 12.402344 17.015625 13.207031 C 17.363281 13.882812 17.371094 14.71875 17.042969 15.402344 C 16.574219 16.371094 15.429688 16.972656 14.332031 16.753906 C 13.335938 16.558594 12.511719 15.6875 12.367188 14.675781 C 12.257812 13.890625 12.554688 13.0625 13.132812 12.523438 C 13.582031 12.105469 14.1875 11.863281 14.800781 11.859375 C 14.8125 11.859375 14.820312 11.859375 14.832031 11.859375 Z M 14.804688 12.359375 C 13.90625 12.367188 13.066406 13.050781 12.886719 13.933594 C 12.753906 14.582031 12.972656 15.289062 13.449219 15.75 C 13.996094 16.277344 14.855469 16.449219 15.570312 16.152344 C 16.203125 15.886719 16.679688 15.273438 16.769531 14.59375 C 16.882812 13.761719 16.398438 12.882812 15.628906 12.53125 C 15.367188 12.417969 15.085938 12.359375 14.804688 12.359375 Z M 15.867188 13.390625 C 15.980469 13.402344 15.996094 13.433594 16.03125 13.46875 C 16.121094 13.558594 16.117188 13.71875 16.027344 13.816406 L 14.675781 15.195312 C 14.644531 15.226562 14.632812 15.234375 14.609375 15.246094 C 14.527344 15.285156 14.417969 15.273438 14.34375 15.21875 C 14.335938 15.210938 14.332031 15.207031 14.324219 15.199219 L 13.605469 14.496094 C 13.566406 14.453125 13.558594 14.433594 13.546875 14.402344 C 13.488281 14.242188 13.636719 14.042969 13.820312 14.070312 C 13.855469 14.074219 13.890625 14.089844 13.925781 14.113281 C 13.9375 14.121094 13.945312 14.128906 13.957031 14.140625 L 14.496094 14.667969 L 15.671875 13.464844 C 15.671875 13.464844 15.769531 13.386719 15.867188 13.390625 Z M 10.332031 13.792969 L 2.332031 13.792969 C 2.152344 13.792969 2 13.636719 2 13.449219 L 2 12.070312 C 2 11.878906 2.152344 11.722656 2.332031 11.722656 L 10.332031 11.722656 C 10.515625 11.722656 10.667969 11.878906 10.667969 12.070312 L 10.667969 13.449219 C 10.667969 13.636719 10.515625 13.792969 10.332031 13.792969 Z M 10 12.414062 L 2.667969 12.414062 L 2.667969 13.101562 L 10 13.101562 Z M 11.980469 6.351562 C 11.980469 6.328125 11.988281 6.304688 11.996094 6.28125 C 12.011719 6.246094 12.035156 6.214844 12.0625 6.191406 C 12.074219 6.179688 12.089844 6.171875 12.101562 6.164062 L 14.679688 4.667969 C 14.757812 4.628906 14.753906 4.632812 14.808594 4.636719 C 14.820312 4.636719 14.828125 4.636719 14.839844 4.636719 C 14.875 4.640625 14.910156 4.652344 14.941406 4.667969 L 17.476562 6.144531 C 17.5 6.15625 17.523438 6.167969 17.542969 6.183594 C 17.566406 6.203125 17.574219 6.214844 17.589844 6.238281 C 17.601562 6.25 17.609375 6.265625 17.613281 6.28125 C 17.625 6.308594 17.632812 6.339844 17.632812 6.375 L 17.632812 9.316406 C 17.632812 9.40625 17.585938 9.484375 17.511719 9.535156 L 14.933594 11.039062 C 14.832031 11.09375 14.800781 11.082031 14.753906 11.070312 C 14.746094 11.070312 14.742188 11.066406 14.738281 11.066406 C 14.730469 11.0625 14.726562 11.0625 14.71875 11.058594 C 14.699219 11.054688 14.695312 11.050781 14.679688 11.042969 L 12.09375 9.539062 C 12.019531 9.492188 11.972656 9.414062 11.96875 9.324219 L 11.976562 6.378906 C 11.976562 6.371094 11.976562 6.363281 11.980469 6.351562 Z M 10.332031 11.035156 L 2.332031 11.035156 C 2.152344 11.035156 2 10.878906 2 10.691406 L 2 9.308594 C 2 9.121094 2.152344 8.964844 2.332031 8.964844 L 10.332031 8.964844 C 10.515625 8.964844 10.667969 9.121094 10.667969 9.308594 L 10.667969 10.691406 C 10.667969 10.878906 10.515625 11.035156 10.332031 11.035156 Z M 12.46875 9.179688 L 14.554688 10.390625 L 14.554688 7.996094 L 12.476562 6.808594 C 12.472656 7.601562 12.472656 8.390625 12.46875 9.179688 Z M 17.132812 6.8125 L 15.054688 8.015625 L 15.054688 10.390625 L 17.132812 9.175781 Z M 10 9.65625 L 2.667969 9.65625 L 2.667969 10.34375 L 10 10.34375 Z M 10.332031 8.277344 L 2.332031 8.277344 C 2.152344 8.277344 2 8.121094 2 7.929688 L 2 6.550781 C 2 6.363281 2.152344 6.207031 2.332031 6.207031 L 10.332031 6.207031 C 10.515625 6.207031 10.667969 6.363281 10.667969 6.550781 L 10.667969 7.929688 C 10.667969 8.121094 10.515625 8.277344 10.332031 8.277344 Z M 10 6.898438 L 2.667969 6.898438 L 2.667969 7.585938 L 10 7.585938 Z M 14.027344 7.121094 L 14.824219 7.574219 L 16.886719 6.378906 L 16.097656 5.921875 Z M 12.726562 6.378906 L 13.523438 6.832031 L 15.601562 5.628906 L 14.8125 5.171875 Z M 5.667969 5.515625 L 2.332031 5.515625 C 2.152344 5.515625 2 5.363281 2 5.171875 C 2 4.984375 2.152344 4.828125 2.332031 4.828125 L 5.667969 4.828125 C 5.847656 4.828125 6 4.984375 6 5.171875 C 6 5.363281 5.847656 5.515625 5.667969 5.515625 Z M 19 0.691406 L 1 0.691406 C 0.816406 0.691406 0.667969 0.84375 0.667969 1.035156 L 0.667969 2.757812 L 19.332031 2.757812 L 19.332031 1.035156 C 19.332031 0.84375 19.183594 0.691406 19 0.691406 Z M 4.332031 1.378906 C 4.515625 1.378906 4.667969 1.535156 4.667969 1.722656 C 4.667969 1.914062 4.515625 2.070312 4.332031 2.070312 C 4.148438 2.070312 4 1.914062 4 1.722656 C 4 1.535156 4.148438 1.378906 4.332031 1.378906 Z M 3 1.378906 C 3.183594 1.378906 3.332031 1.535156 3.332031 1.722656 C 3.332031 1.914062 3.183594 2.070312 3 2.070312 C 2.816406 2.070312 2.667969 1.914062 2.667969 1.722656 C 2.667969 1.535156 2.816406 1.378906 3 1.378906 Z M 1.667969 1.378906 C 1.851562 1.378906 2 1.535156 2 1.722656 C 2 1.914062 1.851562 2.070312 1.667969 2.070312 C 1.484375 2.070312 1.332031 1.914062 1.332031 1.722656 C 1.332031 1.535156 1.484375 1.378906 1.667969 1.378906 Z M 1.667969 1.378906 "/>
</g>
</svg>
