<?xml version="1.0" encoding="UTF-8" standalone="no"?>
<!DOCTYPE svg PUBLIC "-//W3C//DTD SVG 1.1//EN" "http://www.w3.org/Graphics/SVG/1.1/DTD/svg11.dtd">
<svg width="100%" height="100%" viewBox="0 0 300 300" version="1.1" xmlns="http://www.w3.org/2000/svg" xmlns:xlink="http://www.w3.org/1999/xlink" xml:space="preserve" xmlns:serif="http://www.serif.com/" style="fill-rule:evenodd;clip-rule:evenodd;stroke-linejoin:round;stroke-miterlimit:2;">
    <rect id="Artboard1" x="0" y="0" width="300" height="300" style="fill:none;"/>
    <g id="Artboard11" serif:id="Artboard1">
        <g transform="matrix(2.29885,0,0,2.29885,81.2519,12.6069)">
            <circle cx="29.905" cy="59.766" r="63.088" style="fill:rgb(240,99,53);"/>
        </g>
        <g transform="matrix(1.1679,0,0,1.0405,58.6119,69.8122)">
            <path d="M97.9,10.4C92.2,16 88.6,23.7 88.6,32.4L88.6,83.4C88.6,90.9 82.5,97 75,97L40.8,97C33.3,97 27.2,90.9 27.2,83.4C27.2,75.9 33.3,69.8 40.8,69.8L78.3,69.8L78.3,42.6L40.8,42.6C38.5,42.6 36.2,42.8 34,43.1C14.7,46.4 0,63.2 0,83.4C0,101.2 11.4,116.3 27.2,121.9C29.4,122.7 31.7,123.3 34,123.7C36.2,124.1 38.5,124.3 40.8,124.3L75,124.3C77.3,124.3 79.6,124.1 81.8,123.7C84.1,123.3 86.4,122.7 88.6,121.9C104.5,116.3 115.8,101.2 115.8,83.4L115.8,69.8C130.8,69.8 143,57.6 143,42.6L115.8,42.6L115.8,32.4C115.8,30.5 117.3,29 119.2,29L126,29C134.3,29 141.8,25.7 147.4,20.3C152.3,15.5 155.7,9 156.5,1.7L119.2,1.7C111,1.8 103.4,5.1 97.9,10.4" style="fill:white;fill-rule:nonzero;"/>
            <path d="M40.8,131C33.3,131 27.2,137.1 27.2,144.6C27.2,152.1 33.3,158.2 40.8,158.2C48.3,158.2 54.4,152.1 54.4,144.6C54.4,137.1 48.3,131 40.8,131" style="fill:white;fill-rule:nonzero;"/>
            <path d="M81.6,131C74.1,131 68,137.1 68,144.6C68,152.1 74.1,158.2 81.6,158.2C89.1,158.2 95.2,152.1 95.2,144.6C95.2,137.1 89.2,131 81.6,131" style="fill:white;fill-rule:nonzero;"/>
        </g>
    </g>
</svg>
