<?xml version="1.0" encoding="UTF-8"?>
<svg xmlns="http://www.w3.org/2000/svg" xmlns:xlink="http://www.w3.org/1999/xlink" width="20pt" height="20pt" viewBox="0 0 20 20" version="1.1">
<g id="surface1">
<path style=" stroke:none;fill-rule:evenodd;fill:rgb(0%,0%,0%);fill-opacity:1;" d="M 2.890625 10.398438 C 2.886719 10.386719 2.886719 10.371094 2.886719 10.355469 C 2.886719 10.324219 2.886719 10.296875 2.890625 10.265625 C 2.910156 8.449219 3.429688 6.59375 4.617188 5.203125 C 5.902344 3.695312 7.882812 2.847656 9.886719 2.839844 C 9.898438 2.839844 9.914062 2.839844 9.925781 2.839844 C 12.519531 2.851562 15.058594 4.269531 16.265625 6.632812 C 16.667969 7.417969 16.914062 8.277344 17.03125 9.148438 L 17.5 8.65625 L 17.511719 8.644531 L 17.523438 8.636719 L 17.535156 8.625 L 17.550781 8.617188 L 17.5625 8.605469 L 17.578125 8.597656 L 17.589844 8.589844 L 17.605469 8.582031 L 17.621094 8.578125 L 17.636719 8.570312 L 17.648438 8.566406 L 17.664062 8.5625 L 17.683594 8.558594 L 17.699219 8.558594 L 17.714844 8.554688 L 17.777344 8.554688 L 17.855469 8.574219 L 17.871094 8.582031 L 17.886719 8.585938 L 17.898438 8.59375 L 17.929688 8.609375 L 17.941406 8.621094 L 17.953125 8.628906 L 18 8.675781 L 18.007812 8.6875 L 18.019531 8.703125 L 18.027344 8.714844 L 18.035156 8.730469 L 18.042969 8.742188 L 18.050781 8.757812 L 18.058594 8.789062 L 18.066406 8.804688 L 18.066406 8.820312 L 18.074219 8.851562 L 18.074219 8.929688 L 18.070312 8.949219 L 18.0625 8.980469 L 18.058594 8.992188 L 18.050781 9.007812 L 18.046875 9.023438 L 18.03125 9.054688 L 18.015625 9.078125 L 18.003906 9.09375 L 17.996094 9.105469 L 17.984375 9.117188 L 17.027344 10.121094 C 17.019531 10.132812 17.007812 10.140625 16.996094 10.152344 L 16.777344 10.382812 C 18.554688 10.382812 20 11.828125 20 13.605469 C 20 15.382812 18.554688 16.824219 16.777344 16.824219 C 15 16.824219 13.558594 15.382812 13.558594 13.605469 C 13.558594 11.828125 15 10.382812 16.777344 10.382812 L 15.511719 9.179688 L 15.5 9.167969 L 15.492188 9.15625 L 15.480469 9.140625 L 15.46875 9.128906 L 15.460938 9.117188 L 15.453125 9.101562 L 15.445312 9.089844 L 15.4375 9.074219 L 15.433594 9.058594 L 15.425781 9.042969 L 15.414062 8.996094 L 15.414062 8.980469 L 15.410156 8.964844 L 15.410156 8.902344 L 15.414062 8.882812 L 15.417969 8.867188 L 15.417969 8.851562 L 15.425781 8.835938 L 15.429688 8.824219 L 15.433594 8.808594 L 15.449219 8.777344 L 15.457031 8.765625 L 15.464844 8.75 L 15.476562 8.738281 L 15.484375 8.726562 L 15.496094 8.710938 L 15.507812 8.699219 L 15.519531 8.691406 L 15.542969 8.667969 L 15.554688 8.660156 L 15.585938 8.644531 L 15.597656 8.636719 L 15.613281 8.628906 L 15.628906 8.625 L 15.644531 8.617188 L 15.675781 8.609375 L 15.691406 8.609375 L 15.707031 8.605469 L 15.722656 8.605469 L 15.738281 8.601562 L 15.753906 8.601562 L 15.769531 8.605469 L 15.785156 8.605469 L 15.800781 8.609375 L 15.820312 8.613281 L 15.832031 8.617188 L 15.863281 8.625 L 15.894531 8.640625 L 15.90625 8.648438 L 15.921875 8.65625 L 15.933594 8.664062 L 15.949219 8.675781 L 15.960938 8.683594 L 15.972656 8.695312 L 16.339844 9.046875 C 16.085938 7.511719 15.367188 6.050781 14.171875 5.035156 C 12.1875 3.355469 9.15625 3.003906 6.804688 4.277344 C 5.554688 4.957031 4.578125 6.101562 4.0625 7.4375 C 3.703125 8.371094 3.554688 9.378906 3.554688 10.382812 L 3.550781 10.398438 C 5.175781 10.566406 6.441406 11.9375 6.441406 13.605469 C 6.441406 15.382812 5 16.824219 3.222656 16.824219 C 1.445312 16.824219 0 15.382812 0 13.605469 C 0 11.9375 1.265625 10.566406 2.890625 10.398438 Z M 16.777344 11.070312 C 18.179688 11.070312 19.3125 12.207031 19.3125 13.605469 C 19.3125 15.003906 18.179688 16.140625 16.777344 16.140625 C 15.378906 16.140625 14.242188 15.003906 14.242188 13.605469 C 14.242188 12.207031 15.378906 11.070312 16.777344 11.070312 Z M 16.777344 11.070312 "/>
</g>
</svg>
